<svg xmlns="http://www.w3.org/2000/svg" width="100%" height="100%" viewBox="0 0 106.373 103.917">
  <defs>
    <style>
      .cls-1 {
        fill: #ffed66;
        stroke-width: 6.35px;
        stroke: #003049;
        fill-rule: evenodd;
      }
      .pattern {
        fill: url(#diagonalHatch) #fff;        
        stroke-width: 2px;
      }
    </style>
    <pattern id="diagonalHatch" width="4" height="4" patternTransform="rotate(45 0 0)" patternUnits="userSpaceOnUse">
      <line x1="0" y1="0" x2="0" y2="10" style="stroke:#003049; stroke-width:2" />
    </pattern>
  </defs>
  <g id="circle" transform="matrix(-0.342, -0.94, 0.94, -0.342, 32.391, 134.61)">
    <path id="solid" class="cls-1 pattern" d="M35.144,0A34.919,34.919,0,0,1,70.289,34.689,34.919,34.919,0,0,1,35.144,69.378,34.919,34.919,0,0,1,0,34.689,34.919,34.919,0,0,1,35.144,0Z" transform="translate(28.051 15.324)"/>
    <path id="solid-2" data-name="solid" class="cls-1" d="M35.144,0A34.919,34.919,0,0,1,70.289,34.689,34.919,34.919,0,0,1,35.144,69.378,34.919,34.919,0,0,1,0,34.689,34.919,34.919,0,0,1,35.144,0Z" transform="translate(39.768 9.919)"/>
  </g>
</svg>
