<svg xmlns="http://www.w3.org/2000/svg" width="330.978" height="79.809" viewBox="0 0 330.978 79.809">
  <defs>
    <style>
      .cls-1, .cls-3 {
        fill: #003049;
      }

      .cls-1 {
        fill-rule: evenodd;
      }

      .cls-2, .cls-3 {
        stroke: none;
      }
    </style>
  </defs>
  <g id="div-bg" class="cls-1" transform="translate(-2 -2.388)">
    <path class="cls-2" d="M 317.2303771972656 80.19661712646484 L 182.6037139892578 80.19661712646484 C 182.5095977783203 77.46163177490234 181.7843017578125 73.51500701904297 178.7021026611328 71.15853118896484 C 177.6286010742188 70.33811950683594 175.3689270019531 69.74816131591797 173.6622924804688 69.39766693115234 C 171.18701171875 68.88934326171875 168.4878845214844 68.60939025878906 166.0621948242188 68.60939025878906 C 161.73828125 68.60939025878906 158.4457855224609 69.45025634765625 156.2761077880859 71.10861968994141 C 153.1917114257812 73.46578216552734 152.4667053222656 77.41131591796875 152.3734130859375 80.14684295654297 L 15.79633140563965 80.14684295654297 C 12.64396858215332 80.14684295654297 9.596423149108887 79.21989440917969 7.435059070587158 77.60366821289062 C 5.868013858795166 76.43184661865234 4.000013828277588 74.32143402099609 4.000013828277588 70.92179870605469 L 4.000013828277588 14.18478775024414 C 4.13084077835083 13.5021448135376 4.647522449493408 11.28287220001221 6.149831771850586 9.113347053527832 C 8.321105003356934 5.977846622467041 11.56433200836182 4.387982845306396 15.7894229888916 4.387982845306396 L 152.4807586669922 4.387982845306396 C 152.4945983886719 5.060383319854736 152.5333404541016 5.702919006347656 152.5765075683594 6.138574123382568 C 152.877197265625 9.172710418701172 153.7937927246094 11.4816198348999 155.3008728027344 13.00116443634033 C 158.1794281005859 15.90380096435547 162.9913787841797 16.5130729675293 166.521240234375 16.5130729675293 C 169.0746459960938 16.5130729675293 171.7920532226562 16.18525505065918 174.1728820800781 15.5899829864502 C 175.9467468261719 15.14648342132568 178.3367462158203 14.35075569152832 179.6491546630859 13.07857418060303 C 181.2307434082031 11.54502868652344 182.1733703613281 9.220574378967285 182.4510650634766 6.169573783874512 C 182.4991607666016 5.641294002532959 182.5261840820312 5.035282135009766 182.530517578125 4.438392162322998 L 317.3242797851562 4.438392162322998 C 321.7007446289062 4.438392162322998 325.3294372558594 5.556392192840576 327.8180541992188 7.671528339385986 C 329.8262329101562 9.378392219543457 330.97802734375 11.70148277282715 330.97802734375 14.04516506195068 L 330.97802734375 70.86639404296875 C 330.97802734375 72.35343933105469 330.7648315429688 73.65289306640625 330.3443908691406 74.72866821289062 C 329.91064453125 75.83848571777344 329.255615234375 76.74230194091797 328.3418273925781 77.49170684814453 C 326.1534118652344 79.28657531738281 322.4149780273438 80.19661712646484 317.2303771972656 80.19661712646484 Z"/>
    <path class="cls-3" d="M 317.2303771972656 78.19661712646484 C 321.8740539550781 78.19661712646484 325.2777404785156 77.41812133789062 327.0735473632812 75.94530487060547 C 327.89111328125 75.27480316162109 328.97802734375 74.01875305175781 328.97802734375 70.86639404296875 L 328.97802734375 14.04516506195068 C 328.97802734375 12.28925609588623 328.0830993652344 10.52161979675293 326.5227966308594 9.195483207702637 C 325.04296875 7.937710285186768 322.2458190917969 6.438392162322998 317.3242797851562 6.438392162322998 L 184.4346771240234 6.438392162322998 C 184.1015930175781 9.937180519104004 182.9602508544922 12.65380668640137 181.0411529541016 14.51461982727051 C 178.2071075439453 17.2618465423584 171.5277862548828 18.5130729675293 166.521240234375 18.5130729675293 C 162.6112365722656 18.5130729675293 157.2442932128906 17.80111885070801 153.8808746337891 14.4095287322998 C 152.0509643554688 12.56451320648193 150.9444274902344 9.866058349609375 150.5914764404297 6.387982845306396 L 15.7894229888916 6.387982845306396 C 12.20987701416016 6.387982845306396 9.5946044921875 7.651892185211182 7.794149875640869 10.25189208984375 C 6.617644309997559 11.9508810043335 6.147587776184082 13.71084785461426 6.000013828277588 14.38825511932373 L 6.000013828277588 70.92179870605469 C 6.000013828277588 72.98638916015625 6.885786533355713 74.69561767578125 8.632786750793457 76.00198364257812 C 10.45565032958984 77.36507415771484 13.066650390625 78.14684295654297 15.79633140563965 78.14684295654297 L 150.5239715576172 78.14684295654297 C 151.0157012939453 74.44707489013672 152.5864868164062 71.41114044189453 155.0615997314453 69.51962280273438 C 157.5880584716797 67.58853149414062 161.2891998291016 66.60939025878906 166.0621948242188 66.60939025878906 C 170.8623809814453 66.60939025878906 177.5240631103516 67.74102783203125 179.9168243408203 69.56970977783203 C 182.3901214599609 71.46061706542969 183.9603271484375 74.49649810791016 184.4526824951172 78.19661712646484 L 317.2303771972656 78.19661712646484 M 317.2303771972656 82.19661712646484 C 292.1209716796875 82.19661712646484 239.7644653320312 82.19661712646484 180.5663757324219 82.19661712646484 C 180.5340576171875 82.19661712646484 181.3600158691406 75.70816802978516 177.4873809814453 72.74739074707031 C 176.3652496337891 71.88978576660156 171.1447601318359 70.60940551757812 166.0622100830078 70.60940551757812 C 162.7596435546875 70.60940551757812 159.5158538818359 71.149658203125 157.4906463623047 72.69761657714844 C 153.6172485351562 75.65775299072266 154.4431915283203 82.14684295654297 154.4116058349609 82.14684295654297 C 93.63401031494141 82.14684295654297 40.06828689575195 82.14684295654297 15.79633140563965 82.14684295654297 C 8.700740814208984 82.14684295654297 2.000013589859009 78.04461669921875 2.000013589859009 70.92179870605469 C 2.000013589859009 51.29465866088867 2.000013589859009 12.80339431762695 2.000013589859009 12.80339431762695 C 2.000013589859009 12.80339431762695 2.000013589859009 13.18480682373047 2.000013589859009 14.00484657287598 C 2.000013589859009 14.00499439239502 2.000024557113647 14.00507068634033 2.000045299530029 14.00507068634033 C 2.008312702178955 14.00507068634033 3.675359010696411 2.387983083724976 15.7894229888916 2.387983083724976 C 46.71051406860352 2.387983083724976 121.4599227905273 2.387983083724976 154.5502014160156 2.387983083724976 C 154.5332336425781 2.387983083724976 153.8812866210938 8.72966480255127 156.7209167480469 11.59280109405518 C 158.8268890380859 13.71639347076416 162.647705078125 14.51308536529541 166.521240234375 14.51308536529541 C 171.5574340820312 14.51308536529541 176.6837921142578 13.16761493682861 178.2571105957031 11.64252853393555 C 181.2260589599609 8.763710021972656 180.4439697265625 2.438392162322998 180.4270629882812 2.438392162322998 C 212.8699645996094 2.438392162322998 285.3594360351562 2.438392162322998 317.3242797851562 2.438392162322998 C 327.8899536132812 2.438392162322998 332.97802734375 8.460710525512695 332.97802734375 14.04516506195068 C 332.97802734375 29.26216506958008 332.97802734375 55.78798294067383 332.97802734375 70.86639404296875 C 332.97802734375 77.55075836181641 329.2462463378906 82.19661712646484 317.2303771972656 82.19661712646484 Z"/>
  </g>
</svg>
